<?xml version="1.0" standalone="no"?><!DOCTYPE svg PUBLIC "-//W3C//DTD SVG 1.1//EN" "http://www.w3.org/Graphics/SVG/1.1/DTD/svg11.dtd"><svg t="1718893273953" class="icon" viewBox="0 0 1024 1024" version="1.1" xmlns="http://www.w3.org/2000/svg" p-id="10316" xmlns:xlink="http://www.w3.org/1999/xlink" width="64" height="64"><path d="M145.621959 0c-44.79888 0-79.998 36.81188-79.998 81.61076v860.77848c0 44.79888 35.19912 81.61076 79.998 81.61076h732.781681a81.969151 81.969151 0 0 0 81.61076-81.61076V324.80468L657.60916 0h-511.987201z" fill="#F17F53" p-id="10317"></path><path d="M657.60916 0v233.59416c0 25.59936 17.61236 92.79768 97.61036 92.79768h204.79488L657.60916 0z" fill="#FFFFFF" p-id="10318"></path><path d="M109.117272 659.874703c1.61276 0 2.867128 0.614385 3.814305 1.868753s1.663958 2.764731 2.175945 4.582286 0.81918 3.737507 0.972776 5.862253 0.230394 4.044699 0.230394 5.862254v5.708657c2.099148 3.302317 4.78708 6.886228 8.0126 10.726132s6.963026 7.449414 11.18692 10.80293 8.78058 6.143846 13.721257 8.39659 10.214145 3.379116 15.820405 3.379115c5.99025 0 11.622109-1.407965 16.869978-4.198295s10.137347-6.527837 14.617235-11.18692 8.652584-9.98375 12.441288-15.974001 7.21902-12.236494 10.265344-18.661933 5.759856-12.876478 8.089398-19.276318 4.377491-12.287693 6.067048-17.689158 3.046324-10.086148 4.044699-14.028449 1.689558-6.681433 2.099147-8.166196c2.611135-10.598135 4.81268-20.761081 6.681433-30.437639s2.764731-19.250719 2.764731-28.645684c0-2.303942-0.691183-3.60951-2.099147-3.891103l-37.19587 10.495738a19.916302 19.916302 0 0 1-5.094273 0.895978c-3.788705 0-6.963026-1.20317-9.522962-3.60951s-3.814305-5.862253-3.814305-10.342142 0.435189-8.114997 1.279968-10.879728 2.201545-4.81268 4.044699-6.220644 4.275093-2.329542 7.270218-2.764731 6.655834-0.665583 10.956527-0.665583h2.099147c2.40634-0.511987 5.478263-1.20317 9.21577-2.099148s7.935802-1.919952 12.518087-3.071923l14.694032-3.737507 15.743607-4.044699c5.299068-1.356766 10.572536-2.662333 15.820404-3.9679a1637.283868 1637.283868 0 0 1 23.474613-5.63186l5.990251-1.279968a22.01545 22.01545 0 0 1 3.737506-0.588785c1.20317 0 2.303942 0.358391 3.302318 1.049574s1.817555 1.58716 2.483138 2.636734a14.514837 14.514837 0 0 1 2.175945 7.423814c0 2.995125-1.151971 5.60626-3.455913 7.807805s-5.19667 4.121497-8.703783 5.785456-7.321417 3.097523-11.468513 4.351891l-11.62211 3.532711c-3.60951 1.100772-6.681433 2.175946-9.215769 3.22552s-3.967901 2.227144-4.275093 3.532711c-0.511987 4.40309-0.998375 9.292568-1.510363 14.694033s-1.049574 10.546936-1.638359 15.462014c-0.204795 1.20317-0.614385 4.095898-1.279968 8.703782s-1.561561 10.188545-2.687932 16.79318-2.559936 13.823654-4.198295 21.682658-3.532712 15.564411-5.63186 23.167421c-2.303942 8.294193-5.324667 17.151571-9.062173 26.546536s-8.191795 18.559536-13.337267 27.442514-10.982125 17.228369-17.484363 24.984976-13.542061 14.130847-21.145071 19.122721a58.929727 58.929727 0 0 1-23.19302 8.089398 61.336067 61.336067 0 0 1-9.369366 0.742382c-5.19667 0-10.828529-0.691183-16.869978-2.099148s-12.134097-3.404715-18.226744-5.99025-11.9805-5.734257-17.61236-9.369366-10.674933-7.705407-15.078023-12.159696-7.910202-9.21577-10.495738-14.335641-3.891103-10.444539-3.891102-16.050799c0-4.300692 0.435189-8.0126 1.279968-11.110122s2.227144-5.60626 4.121496-7.500613 4.428689-3.302317 7.577411-4.198295 7.014225-1.484763 11.519712-1.484763zM305.61796 693.333067c3.404715 1.20317 6.886228 2.611135 10.418939 4.198295s7.21902 3.123122 11.033324 4.582285 7.782205 2.662333 11.929302 3.686308 8.575786 1.510362 13.286068 1.510362c5.503862 0 11.058924-0.639984 16.639584-1.945551s11.084523-3.225519 16.434789-5.785455 10.470138-5.657459 15.385215-9.292568 9.394965-7.884603 13.490863-12.671683c4.505487-5.094273 8.242994-9.727757 11.238119-13.874854s5.427064-7.859004 7.270218-11.110122 3.174321-6.041449 3.967901-8.39659 1.20317-4.377491 1.20317-6.067048c0-2.508737-0.844779-4.684683-2.559936-6.527837s-3.967901-3.379116-6.835029-4.582285-6.067048-2.073548-9.676558-2.636734-7.347016-0.81918-11.238119-0.81918c-2.303942 0-4.991875 0.076798-8.089398 0.230394l-9.446164 0.460789-9.292567 0.38399a150.39624 150.39624 0 0 1-7.807805 0.153596c-3.302317 0-6.732632-0.38399-10.265344-1.126372s-7.014225-1.971151-10.418939-3.686307-6.553436-3.9935-9.446164-6.911828a35.403915 35.403915 0 0 1-8.831779-15.743606 24.626584 24.626584 0 0 1-0.742382-6.143846c0-2.40634 0.179196-4.684683 0.537587-6.83503s0.767981-4.223894 1.279968-6.220644c1.407965-4.991875 3.737507-10.086148 6.963026-15.231619s7.142221-10.162946 11.698907-15.078023 9.497363-9.650959 14.847629-14.258844 10.854129-8.934177 16.511587-12.978875 11.21252-7.705407 16.639584-10.956526 10.521337-6.01585 15.23162-8.319792c6.604635-3.19992 13.337267-5.529462 20.172295-6.963026s13.61886-2.175946 20.325892-2.175946c3.9935 0 7.807805 0.537587 11.391715 1.58716s6.78383 2.585535 9.522962 4.582286 4.915077 4.479888 6.527837 7.423814 2.40634 6.323042 2.40634 10.137347c0 2.201545-0.255994 4.044699-0.742381 5.555061s-1.151971 2.713532-1.945552 3.686308-1.663958 1.61276-2.636734 2.022349-1.919952 0.588785-2.918327 0.588785c-2.687933 0-5.171071-0.307192-7.423814-0.895977s-4.428689-1.279968-6.527837-2.02235-4.198295-1.459164-6.297443-2.099147-4.40309-0.972776-6.911827-0.972776c-7.398215 0-14.924427 1.484763-22.578635 4.428689s-15.103622 6.707032-22.348242 11.23812-14.105247 9.625359-20.556286 15.231619-12.236494 11.058924-17.330767 16.357991c-2.687933 2.79033-4.684683 5.60626-5.913452 8.39659s-1.868753 5.452664-1.868753 7.961401c0 3.711907 1.61276 6.604635 4.81268 8.703782s7.091023 3.148721 11.698907 3.148722c2.687933 0 5.759856-0.051199 9.138972-0.153597a796.140096 796.140096 0 0 0 20.761081-0.844779c3.353516-0.153596 6.323042-0.230394 8.934176-0.230394 6.195045 0 12.159696 0.870378 17.842754 2.636734s10.751731 4.326292 15.154821 7.731007 7.935802 7.628609 10.572536 12.671683 3.967901 10.828529 3.967901 17.330767c0 3.9935-0.588785 8.038199-1.791955 12.159696s-2.841529 8.217395-4.940677 12.364491-4.505487 8.242994-7.19342 12.287693-5.555061 8.0126-8.550186 11.929301c-5.401465 6.988625-11.417315 13.59326-18.073148 19.788306s-13.721257 11.59651-21.22187 16.204395-15.436414 8.242994-23.781805 10.956526-16.921177 4.044699-25.727357 4.044699a74.724532 74.724532 0 0 1-23.551411-4.121497c-3.891103-1.356766-7.577411-3.046324-11.033325-5.094273s-6.476638-4.377491-9.062173-6.963026-4.684683-5.478263-6.220644-8.626984-2.329542-6.579036-2.329542-10.265344c0-1.791955 0.281593-3.532712 0.819179-5.17107s1.868753-2.559936 4.070299-2.559936zM497.152371 651.631709c1.791955-7.500612 4.40309-15.18042 7.807805-23.013824s7.398215-15.718007 12.0061-23.62821 9.727757-15.666808 15.385215-23.321017a316.868878 316.868878 0 0 1 57.982551-59.928102c3.19992-2.201545 6.143846-3.660708 8.857378-4.351891s5.555061-1.049574 8.550186-1.049573c3.19992 0 6.041449 0.486388 8.550187 1.433564s4.991875 2.662333 7.500612 5.17107c0.79358 0.895978 1.638359 1.689558 2.559936 2.40634s1.740756 1.049574 2.559936 1.049574c0.204795 0 0.460788-0.230394 0.742382-0.665583l0.972775-1.587161c0.358391-0.614385 0.767981-1.228769 1.279968-1.868753s1.100772-1.126372 1.791956-1.433564c1.689558-0.79358 3.737507-1.331167 6.067048-1.58716s4.735882-0.38399 7.116622-0.383991c4.505487 0 8.857379 0.81918 13.055674 2.483138s7.910202 3.967901 11.110122 6.963026c7.60301 7.091023 13.362866 15.59001 17.330767 25.496963s5.913452 20.556286 5.913452 31.948001c0 10.188545-1.510362 21.19627-4.505488 32.997575-2.611135 10.39334-6.323042 20.505087-11.18692 30.309642s-10.546936 18.994725-17.100373 27.59611-13.849254 16.460388-21.887452 23.551412-16.613985 13.20927-25.727357 18.303542-18.610735 9.062173-28.492088 11.929302-19.941901 4.275093-30.156046 4.275093c-9.497363 0-18.021949-1.459164-25.573761-4.351891s-13.951651-6.988625-19.19952-12.287693-9.241369-11.59651-12.006099-18.892328-4.121497-15.410815-4.121497-24.293793c0-3.788705 0.230394-7.628609 0.665583-11.468513s1.151971-7.807805 2.150346-11.801305z m25.343367 10.060549a63.230419 63.230419 0 0 0-1.638359 13.490862c0 5.60626 0.972776 10.521337 2.918327 14.770831s4.710282 7.807805 8.242994 10.649334 7.807805 4.991875 12.748481 6.451039 10.367741 2.175946 16.281193 2.175945c6.988625 0 14.130847-1.100772 21.375465-3.302317s14.335642-5.401465 21.22187-9.59976 13.542061-9.241369 19.941901-15.154821 12.313292-12.594885 17.765956-20.095498 10.290943-15.641209 14.540437-24.447389 7.679808-18.149946 10.265343-28.056898c0.998375-3.60951 1.715157-7.347016 2.175946-11.238119s0.665583-7.654209 0.665583-11.238119c0-5.811055-0.639984-11.340516-1.945551-16.639584s-3.455914-10.00935-6.451039-14.105248-6.937427-7.372616-11.852504-9.830154-10.905327-3.686308-17.99635-3.686308c-0.998375 0-1.766356 0.435189-2.329542 1.279968s-1.126372 1.919952-1.715157 3.225519c-0.511987 1.100772-1.075173 2.252744-1.715157 3.455914a11.878103 11.878103 0 0 1-6.451039 5.555061 15.794805 15.794805 0 0 1-5.785455 0.895978c-1.689558 0-3.19992-0.38399-4.505487-1.126372s-2.611135-1.766356-3.891103-3.071923l-1.510362-1.433564a1.971151 1.971151 0 0 0-1.356766-0.537587c-0.895978 0-2.073548 0.40959-3.532712 1.20317s-2.943926 1.740756-4.505487 2.841529-3.046324 2.252744-4.505488 3.455914-2.585535 2.252744-3.379115 3.148721c-6.80943 6.988625-13.567661 14.617235-20.325892 22.885828s-12.978876 16.767581-18.661934 25.57376-10.674933 17.663558-14.924427 26.623335-7.270218 17.561161-9.16457 25.880953zM760.083398 546.495138c0.588785-2.611135 1.356766-5.375866 2.252744-8.319792s2.099148-5.657459 3.609509-8.089398 3.455914-4.505487 5.862254-6.143847 5.452664-2.483138 9.138971-2.483137c3.507112 0 6.630234 0.972776 9.369366 2.918327s5.222269 3.916702 7.423814 5.913452c2.611135 1.689558 5.094273 5.145471 7.500613 10.342141s4.863878 11.59651 7.423814 19.19952 5.299068 16.204395 8.242994 25.804155 6.195045 19.660308 9.753356 30.156046 7.526212 21.221869 11.929302 32.178396 9.394965 21.631459 15.001225 32.024799l3.148721 5.631859a95.076023 95.076023 0 0 0 7.142222 10.879728c1.049574 1.305567 1.817555 1.945551 2.329542 1.945552 0.307192 0 0.639984-0.742381 1.049573-2.252744s0.844779-3.302317 1.356767-5.401465l1.58716-6.451039a59.902502 59.902502 0 0 1 1.58716-5.401465 476.736882 476.736882 0 0 0 13.721257-37.426264c2.739132-8.447789 5.785455-18.482738 9.062174-30.079248a1560.127397 1560.127397 0 0 0 14.182045-54.526637c1.151971-4.966276 2.252744-10.00935 3.302317-15.154821s1.971151-10.162946 2.764731-15.078023 1.356766-9.138972 1.638359-12.748481a77.540461 77.540461 0 0 1 0.691183-8.242994c0.255994-1.894353 0.563186-3.865503 0.972776-5.913452s0.921577-3.916702 1.58716-5.63186 1.484763-3.097523 2.483138-4.198295 2.201545-1.638359 3.60951-1.638359 3.123122 0.204795 5.171071 0.588786 3.916702 0.998375 5.631859 1.791955c1.894353 2.611135 3.635109 5.734257 5.17107 9.369366s2.329542 8.575786 2.329542 14.77083c0 3.891103-0.40959 8.575786-1.20317 14.02845s-1.817555 11.289318-3.071923 17.561161a634.864128 634.864128 0 0 1-8.934177 38.245443c-1.61276 6.041449-3.123122 11.59651-4.582285 16.639584s-2.662333 9.21577-3.686308 12.518087c-1.791955 5.811055-3.686308 11.775706-5.631859 17.919552s-4.095898 12.594885-6.451039 19.353117-4.889478 13.900452-7.654208 21.452263-5.836654 15.61561-9.21577 24.216995c-1.510362 3.891103-3.225519 7.807805-5.171071 11.698907s-4.172696 7.423814-6.681433 10.572536-5.324667 5.708657-8.473388 7.654209-6.681433 2.918327-10.572536 2.918327c-2.303942 0-4.684683-0.332792-7.116622-0.972776s-4.531087-1.971151-6.220644-3.967901c-8.191795-9.497363-15.487613-20.274693-21.887453-32.331991s-12.134097-24.652184-17.17717-37.810255-9.522962-26.444139-13.414065-39.909402-7.449414-26.316142-10.649334-38.629435l-0.895978-3.455913c-0.40959-1.407965-0.767981-2.81593-1.126371-4.275093s-0.691183-2.764731-1.049574-3.967901-0.742381-2.175946-1.20317-2.918327-0.972776-1.126372-1.58716-1.126372-1.356766 1.100772-2.252744 3.302317-1.791955 4.684683-2.687933 7.423815-1.715157 5.427064-2.483138 8.012599l-1.433564 4.940677c-0.691183 2.611135-1.740756 6.323042-3.148721 11.18692l-4.735882 16.434789c-1.766356 6.118247-3.660708 12.543686-5.708657 19.353117l-5.913452 19.737106a1165.026874 1165.026874 0 0 1-12.902078 40.728582l-3.891102 12.364491c-1.279968 4.147096-2.508737 7.935802-3.60951 11.314917s-1.791955 5.657459-2.099148 6.758231c-1.20317 3.788705-2.969526 6.681433-5.324667 8.626984s-4.735882 2.918327-7.116622 2.918327c-1.510362 0-2.995125-0.537587-4.505487-1.58716s-2.81593-2.329542-3.967901-3.814305-2.099148-3.123122-2.841529-4.863878-1.126372-3.327917-1.126372-4.735882c0-0.79358 0.255994-2.073548 0.742382-3.814304s1.305567-4.735882 2.40634-8.934177l3.891102-15.462013 44.338092-143.638009z" fill="#FFFFFF" p-id="10319"></path></svg>