<?xml version="1.0" standalone="no"?><!DOCTYPE svg PUBLIC "-//W3C//DTD SVG 1.1//EN" "http://www.w3.org/Graphics/SVG/1.1/DTD/svg11.dtd"><svg t="1718807801362" class="icon" viewBox="0 0 1024 1024" version="1.1" xmlns="http://www.w3.org/2000/svg" p-id="6394" width="64" height="64" xmlns:xlink="http://www.w3.org/1999/xlink"><path d="M966.7072 306.7904l-156.4672-169.4208a116.6336 116.6336 0 0 0-85.6064-38.144h-426.496a116.7872 116.7872 0 0 0-88.2688 40.96L57.3952 316.5696a132.608 132.608 0 0 0 2.6624 174.6432l364.5952 394.8032a115.0976 115.0976 0 0 0 171.1616 0l370.8928-401.6128a132.4544 132.4544 0 0 0 0-177.6128z m-288.1536 197.2224L544.512 634.88a40.2944 40.2944 0 0 1-56.0128 0.3072L351.1808 504.32a40.3456 40.3456 0 1 1 55.6544-58.4192l109.1584 103.8848 106.1888-103.5776a40.3456 40.3456 0 0 1 56.32 57.8048z" fill="#FB6E39" p-id="6395"></path><path d="M776.7552 255.0784a433.1008 433.1008 0 0 0-27.8528-153.1904 112.64 112.64 0 0 0-24.2688-2.6624h-426.496a116.7872 116.7872 0 0 0-88.2688 40.96L57.3952 316.5696a132.608 132.608 0 0 0 2.6624 174.6432L230.4 675.84a435.2 435.2 0 0 0 546.3552-420.7616z m-260.4032 391.1168a40.3456 40.3456 0 0 1-27.8528-11.3152L351.1808 504.32a40.3456 40.3456 0 1 1 55.6544-58.4192l109.1584 103.8848 106.1888-103.5776a40.3456 40.3456 0 0 1 56.32 57.8048L544.512 634.88a40.2944 40.2944 0 0 1-28.16 11.3152z" fill="#FC9168" p-id="6396"></path><path d="M347.8528 449.7408c0.6656-0.768 1.1776-1.6896 1.9456-2.4576A39.7312 39.7312 0 0 1 374.1184 435.2a337.3056 337.3056 0 0 0 161.024-287.744 341.2992 341.2992 0 0 0-3.4816-48.2816H298.1376a116.7872 116.7872 0 0 0-88.2688 40.96L57.3952 316.5696a132.5056 132.5056 0 0 0-25.6 124.8768 337.5104 337.5104 0 0 0 316.1088 8.2944z" fill="#FDAC97" p-id="6397"></path></svg>