<?xml version="1.0" standalone="no"?><!DOCTYPE svg PUBLIC "-//W3C//DTD SVG 1.1//EN" "http://www.w3.org/Graphics/SVG/1.1/DTD/svg11.dtd"><svg t="1719333924082" class="icon" viewBox="0 0 1024 1024" version="1.1" xmlns="http://www.w3.org/2000/svg" p-id="2617" xmlns:xlink="http://www.w3.org/1999/xlink" width="48" height="48"><path d="M880.390683 463.596118A397.829774 397.829774 0 0 0 785.555787 331.780845l-33.317226-30.526255a9.245094 9.245094 0 0 0-14.885183 3.779441l-14.885183 42.620466a243.454146 243.454146 0 0 1-50.528219 81.054473 7.210011 7.210011 0 0 1-4.65162 2.209519 6.279687 6.279687 0 0 1-4.884201-1.628067 6.802994 6.802994 0 0 1-2.267664-5.814524 441.031692 441.031692 0 0 0-61.517671-231.127354A406.667852 406.667852 0 0 0 444.824644 29.076693L397.494414 1.283266a9.128804 9.128804 0 0 0-13.722278 8.43106l2.500245 54.947258a250.024558 250.024558 0 0 1-12.96639 98.265466 323.927166 323.927166 0 0 1-53.726207 93.032394 337.882025 337.882025 0 0 1-54.30766 52.737738 403.469863 403.469863 0 0 0-114.720571 138.967138 397.887919 397.887919 0 0 0-9.768401 332.125646 404.342042 404.342042 0 0 0 655.645796 127.047363 396.89945 396.89945 0 0 0 83.90359-443.706373z" fill="#EF5959" p-id="2618"></path></svg>