<?xml version="1.0" standalone="no"?><!DOCTYPE svg PUBLIC "-//W3C//DTD SVG 1.1//EN" "http://www.w3.org/Graphics/SVG/1.1/DTD/svg11.dtd"><svg t="1718894228264" class="icon" viewBox="0 0 1024 1024" version="1.1" xmlns="http://www.w3.org/2000/svg" p-id="37936" xmlns:xlink="http://www.w3.org/1999/xlink" width="48" height="48"><path d="M392.533333 375.466667c-3.413333 10.24-3.413333 20.48-6.826666 23.893333l-54.613334 150.186667h122.88l-54.613333-150.186667c0-3.413333-3.413333-13.653333-6.826667-23.893333zM641.706667 583.68c-6.826667 6.826667-13.653333 17.066667-13.653334 34.133333 0 13.653333 3.413333 23.893333 13.653334 30.72 10.24 6.826667 20.48 10.24 34.133333 10.24 20.48 0 37.546667-6.826667 47.786667-20.48 13.653333-13.653333 20.48-30.72 20.48-51.2v-23.893333l-61.44 6.826667c-17.066667 0-30.72 6.826667-40.96 13.653333z" fill="#00D3CD" p-id="37937"></path><path d="M512 0C228.693333 0 0 228.693333 0 512s228.693333 512 512 512 512-228.693333 512-512S795.306667 0 512 0z m-6.826667 689.493333l-37.546666-98.986666H317.44l-34.133333 98.986666H232.106667l136.533333-361.813333h51.2l136.533333 361.813333h-51.2z m286.72 0h-44.373333V648.533333c-17.066667 30.72-44.373333 44.373333-78.506667 44.373334-23.893333 0-44.373333-6.826667-61.44-20.48-13.653333-13.653333-23.893333-30.72-23.893333-54.613334 0-47.786667 27.306667-75.093333 85.333333-85.333333l75.093334-10.24c0-40.96-17.066667-64.853333-51.2-64.853333-30.72 0-58.026667 10.24-85.333334 30.72V443.733333c27.306667-17.066667 54.613333-23.893333 88.746667-23.893333 61.44 0 92.16 34.133333 92.16 98.986667v170.666666z" fill="#00D3CD" p-id="37938"></path></svg>