<?xml version="1.0" standalone="no"?><!DOCTYPE svg PUBLIC "-//W3C//DTD SVG 1.1//EN" "http://www.w3.org/Graphics/SVG/1.1/DTD/svg11.dtd"><svg t="1718986083973" class="icon" viewBox="0 0 1024 1024" version="1.1" xmlns="http://www.w3.org/2000/svg" p-id="5431" xmlns:xlink="http://www.w3.org/1999/xlink" width="48" height="48"><path d="M480.13 561.27c-37.13 0-70.46-16.37-93.61-42.39-20.41-23.01-32.87-53.53-32.87-87 0-71.45 56.64-129.34 126.48-129.34 45.65 0 85.62 24.7 107.77 61.76 0.04 0.05 0.09 0.09 0.09 0.14 11.79 19.67 18.56 42.73 18.56 67.43 0 71.45-56.58 129.4-126.42 129.4z m278.04 139.44c-33.63-38.46-63.26-82.82-63.34-245.87 0.16-3.76 0.17-3.88 0.17-7.69 0-66.57-23.43-126.92-61.41-170.89 2.87-3.76 5.81-8.24 8.73-13.23 0.38-0.62 0.71-1.24 1.04-1.86 3.43-5.95 6.82-12.55 9.98-19.59 3.11-6.95 5.93-14.18 8.34-21.36 0.28-0.91 0.61-1.81 0.84-2.73 1.46-4.65 2.72-9.29 3.77-13.74 4.8-21.12 3.9-39.23-8.05-44.35-6.79-2.92-14.98 5.31-24.49 17.43-0.33 0.43-0.7 0.86-1.08 1.34-0.42 0.53-0.84 1.06-1.27 1.63-6.21 8.14-13.08 17.68-20.57 26.49-0.57 0.67-1.13 1.34-1.7 2.01-0.33 0.38-0.66 0.76-0.99 1.15-8.18 9.34-17.07 17.65-26.68 22.46-29.9-18.12-64.03-28.38-100.25-28.38-37.15 0-72.09 10.8-102.53 29.8-10.78-4.49-20.69-13.55-29.74-23.87-0.33-0.39-0.66-0.77-0.99-1.15-0.57-0.67-1.13-1.34-1.7-2.01-7.48-8.81-14.35-18.35-20.57-26.49-0.42-0.57-0.85-1.1-1.27-1.63-0.38-0.48-0.75-0.91-1.08-1.34-9.51-12.12-17.7-20.35-24.48-17.43-11.96 5.12-12.85 23.23-8.05 44.35 1.04 4.46 2.31 9.1 3.77 13.74 0.24 0.91 0.56 1.82 0.84 2.73 2.41 7.19 5.23 14.42 8.34 21.36 3.15 7.04 6.54 13.65 9.99 19.59 0.33 0.62 0.65 1.24 1.03 1.86 3.81 6.51 7.66 12.14 11.32 16.48-36.35 43.68-58.66 102.7-58.66 167.65 0 5.18-0.27 7.01 0.01 12.11-0.65 159.65-32.05 203.32-65.39 241.45-23.91 27.34-3.57 84.75 46.33 59.13 100.57-51.63 124.02 44.2 231.61 41 107.59-3.19 128.16-92.64 231.86-41 50.19 24.98 70.22-31.82 46.32-59.15z" fill="#4972F1" p-id="5432"></path><path d="M596.59 413.12c0 36.17-28.65 65.48-64 65.48s-64.01-29.31-64.01-65.48 28.66-65.49 64.01-65.49c35.35 0.01 64 29.33 64 65.49z" fill="#4972F1" p-id="5433"></path></svg>