<?xml version="1.0" standalone="no"?><!DOCTYPE svg PUBLIC "-//W3C//DTD SVG 1.1//EN" "http://www.w3.org/Graphics/SVG/1.1/DTD/svg11.dtd"><svg t="1718893116431" class="icon" viewBox="0 0 1024 1024" version="1.1" xmlns="http://www.w3.org/2000/svg" p-id="3247" xmlns:xlink="http://www.w3.org/1999/xlink" width="64" height="64"><path d="M800.512 768h-576a32 32 0 0 0 0 64h576a32 32 0 0 0 0-64zM672.64 416c-19.328 0-27.968 24.832-27.968 64.192 0 38.912 8.64 63.808 27.968 63.808 19.008 0 27.648-24.832 27.648-63.808 0-39.36-8.64-64.192-27.648-64.192z" fill="#49AA19" p-id="3248"></path><path d="M704.512 192h-384a128 128 0 0 0-128 128v256a128 128 0 0 0 128 128h384a128 128 0 0 0 128-128V320a128 128 0 0 0-128-128z m-192 384h-64l-64-144.192V576h-64V320h59.136l68.864 140.8V320h64v256z m160.128 0c-49.984 0-96.128-35.392-96.128-95.808 0-60.8 46.144-96.192 96.128-96.192 49.664 0 95.808 35.392 95.808 96.192C768.512 540.608 722.304 576 672.64 576z" fill="#49AA19" p-id="3249"></path></svg>