<?xml version="1.0" standalone="no"?><!DOCTYPE svg PUBLIC "-//W3C//DTD SVG 1.1//EN" "http://www.w3.org/Graphics/SVG/1.1/DTD/svg11.dtd"><svg t="1718894536170" class="icon" viewBox="0 0 1061 1024" version="1.1" xmlns="http://www.w3.org/2000/svg" p-id="48818" xmlns:xlink="http://www.w3.org/1999/xlink" width="49.734375" height="48"><path d="M601.043478 881.15942c-1.855072-5.194203-17.066667-40.069565-33.391304-77.542029-16.324638-37.843478-29.681159-70.121739-29.68116-71.976811s13.727536-11.501449 30.423189-21.147826c74.944928-44.521739 131.710145-120.208696 157.310145-209.994203 10.017391-34.504348 10.017391-35.988406 12.243478-190.70145l2.226087-155.826087 79.397101-1.113043c43.77971-0.742029 83.478261-0.371014 88.30145 1.113043l8.904348 2.226087-1.484058 162.133334c-1.113043 147.663768-2.226087 165.101449-9.275363 196.637681-17.437681 77.913043-47.86087 148.776812-89.043478 206.284058-42.295652 58.991304-115.756522 125.031884-176.231884 157.681159-26.342029 14.098551-34.875362 14.469565-39.698551 2.226087zM132.452174 480.092754c-1.484058-1.484058-2.597101-74.944928-2.597102-163.246377 0-126.886957 1.113043-160.649275 4.823189-162.133334 8.162319-2.968116 163.617391-2.597101 168.811594 0.371015 3.710145 2.597101 4.452174 37.843478 3.710145 164.35942l-1.113043 161.02029-85.704348 1.113044c-47.118841 0.371014-86.446377-0.371014-87.930435-1.484058zM421.843478 480.092754c-1.484058-1.484058-2.597101-74.944928-2.597101-163.246377 0-126.515942 1.113043-160.649275 4.823188-162.133334 7.791304-2.968116 163.988406-2.226087 168.811594 0.742029 3.33913 2.226087 4.452174 39.698551 3.710145 163.988406l-1.113043 161.02029-85.704348 1.113044c-47.118841 0.371014-86.446377-0.371014-87.930435-1.484058z" fill="#FF3332" p-id="48819"></path></svg>