<?xml version="1.0" standalone="no"?><!DOCTYPE svg PUBLIC "-//W3C//DTD SVG 1.1//EN" "http://www.w3.org/Graphics/SVG/1.1/DTD/svg11.dtd"><svg t="1718892325178" class="icon" viewBox="0 0 1044 1024" version="1.1" xmlns="http://www.w3.org/2000/svg" p-id="11206" xmlns:xlink="http://www.w3.org/1999/xlink" width="65.25" height="64"><path d="M437.466 225.401l211.19 211.19q75.424 75.424 0 150.849l-211.19 211.189q-75.424 75.425-150.849 0l-211.19-211.19q-75.424-75.424 0-150.849l211.19-211.189q75.425-75.425 150.85 0z" fill="#A5FFDB" p-id="11207"></path><path d="M660.715 149.333h256q106.666 0 106.666 106.667v512q0 106.667-106.666 106.667h-256q-106.667 0-106.667-106.667V256q0-106.667 106.667-106.667z" fill="#757CFF" p-id="11208"></path><path d="M554.027 341.952l94.634 94.613a106.667 106.667 0 0 1 0 150.87l-94.634 94.592V341.952z" fill="#3842FF" p-id="11209"></path></svg>