<?xml version="1.0" standalone="no"?><!DOCTYPE svg PUBLIC "-//W3C//DTD SVG 1.1//EN" "http://www.w3.org/Graphics/SVG/1.1/DTD/svg11.dtd"><svg t="1713941678832" class="icon" viewBox="0 0 1024 1024" version="1.1" xmlns="http://www.w3.org/2000/svg" p-id="21087" xmlns:xlink="http://www.w3.org/1999/xlink" width="200" height="200"><path d="M189.212444 618.325333a288.824889 288.824889 0 0 1 34.133334-151.324444 378.368 378.368 0 0 1 53.532444-68.892445c5.688889-6.257778 12.003556-12.8 19.057778-20.764444l12.344889-13.653333a221.866667 221.866667 0 0 0 42.951111-62.122667 473.258667 473.258667 0 0 0 37.888-182.044444 28.444444 28.444444 0 0 1 16.270222-25.713778 28.444444 28.444444 0 0 1 30.208 3.697778c5.688889 4.608 11.776 9.443556 18.375111 14.620444a646.314667 646.314667 0 0 1 140.8 141.141333 660.650667 660.650667 0 0 1 74.979556 168.163556 152.519111 152.519111 0 0 0 33.507555-81.066667 28.444444 28.444444 0 0 1 22.755556-24.462222 28.444444 28.444444 0 0 1 30.378667 13.767111 501.020444 501.020444 0 0 1 52.792889 122.595556 458.922667 458.922667 0 0 1 25.884444 159.800889 317.553778 317.553778 0 0 1-95.061333 228.124444 322.616889 322.616889 0 0 1-227.555556 92.785778 315.448889 315.448889 0 0 1-323.242667-314.652445z" p-id="21088"></path></svg>