<?xml version="1.0" standalone="no"?><!DOCTYPE svg PUBLIC "-//W3C//DTD SVG 1.1//EN" "http://www.w3.org/Graphics/SVG/1.1/DTD/svg11.dtd"><svg t="1713942955545" class="icon" viewBox="0 0 1024 1024" version="1.1" xmlns="http://www.w3.org/2000/svg" p-id="24492" xmlns:xlink="http://www.w3.org/1999/xlink" width="200" height="200"><path d="M597.162667 910.222222a56.888889 56.888889 0 0 1-56.888889-56.888889h-142.222222a85.333333 85.333333 0 0 1-85.333334-85.333333v-455.111111h56.888889v455.111111a28.444444 28.444444 0 0 0 28.444445 28.444444h142.222222a56.888889 56.888889 0 0 1 56.888889-56.888888h227.555555a56.888889 56.888889 0 0 1 56.888889 56.888888v56.888889a56.888889 56.888889 0 0 1-56.888889 56.888889z m0-284.444444a56.888889 56.888889 0 0 1-56.888889-56.888889h-170.666667V512h170.666667a56.888889 56.888889 0 0 1 56.888889-56.888889h227.555555a56.888889 56.888889 0 0 1 56.888889 56.888889v56.888889a56.888889 56.888889 0 0 1-56.888889 56.888889z" p-id="24493"></path><path d="M199.111111 113.777778h341.333333a56.888889 56.888889 0 0 1 56.888889 56.888889v113.777777a56.888889 56.888889 0 0 1-56.888889 56.888889h-341.333333a56.888889 56.888889 0 0 1-56.888889-56.888889V170.666667a56.888889 56.888889 0 0 1 56.888889-56.888889z" p-id="24494"></path><path d="M199.111111 170.666667v113.777777h341.333333V170.666667h-341.333333m0-56.888889h341.333333a56.888889 56.888889 0 0 1 56.888889 56.888889v113.777777a56.888889 56.888889 0 0 1-56.888889 56.888889h-341.333333a56.888889 56.888889 0 0 1-56.888889-56.888889V170.666667a56.888889 56.888889 0 0 1 56.888889-56.888889z" p-id="24495"></path></svg>