<?xml version="1.0" standalone="no"?><!DOCTYPE svg PUBLIC "-//W3C//DTD SVG 1.1//EN" "http://www.w3.org/Graphics/SVG/1.1/DTD/svg11.dtd"><svg t="1713943107347" class="icon" viewBox="0 0 1024 1024" version="1.1" xmlns="http://www.w3.org/2000/svg" p-id="25998" xmlns:xlink="http://www.w3.org/1999/xlink" width="200" height="200"><path d="M777.443556 896H246.499556A130.844444 130.844444 0 0 1 113.777778 768v-3.811556a28.444444 28.444444 0 0 0 14.222222 3.754667 28.444444 28.444444 0 0 0 20.138667-8.305778l213.048889-213.162666a64.056889 64.056889 0 0 1 44.088888-20.423111 64.056889 64.056889 0 0 1 44.088889 20.423111l127.829334 127.829333 85.333333 85.333333a28.444444 28.444444 0 0 0 20.081778 8.305778 28.444444 28.444444 0 0 0 20.138666-8.305778 28.444444 28.444444 0 0 0 0-40.277333l-65.194666-65.194667 22.357333-22.414222a63.886222 63.886222 0 0 1 44.088889-20.423111 63.886222 63.886222 0 0 1 44.032 20.423111l127.829333 127.829333a28.444444 28.444444 0 0 0 20.138667 8.305778 28.444444 28.444444 0 0 0 14.222222-3.811555v3.811555a130.844444 130.844444 0 0 1-132.778666 128.113778zM113.720889 713.557333V256.056889a130.844444 130.844444 0 0 1 132.721778-128h530.944a130.844444 130.844444 0 0 1 132.778666 128v457.500444l-122.140444-122.026666a120.945778 120.945778 0 0 0-83.854222-36.864 120.775111 120.775111 0 0 0-83.740445 36.750222l-0.341333 0.398222-22.755556 22.755556-108.088889-108.088889-0.398222-0.398222a120.604444 120.604444 0 0 0-83.740444-36.750223 120.604444 120.604444 0 0 0-83.740445 36.750223l-207.36 207.416888z m526.279111-436.224a64.056889 64.056889 0 0 0-63.943111 63.943111 64.113778 64.113778 0 0 0 63.943111 64.056889h0.512a64.113778 64.113778 0 0 0 63.943111-64.056889 64.056889 64.056889 0 0 0-63.943111-63.943111z" p-id="25999"></path></svg>