<?xml version="1.0" standalone="no"?><!DOCTYPE svg PUBLIC "-//W3C//DTD SVG 1.1//EN" "http://www.w3.org/Graphics/SVG/1.1/DTD/svg11.dtd"><svg t="1713942418881" class="icon" viewBox="0 0 1024 1024" version="1.1" xmlns="http://www.w3.org/2000/svg" p-id="21782" xmlns:xlink="http://www.w3.org/1999/xlink" width="200" height="200"><path d="M150.186667 902.030222a28.444444 28.444444 0 0 1-28.444445-28.444444v-160.711111a28.444444 28.444444 0 0 1 8.305778-20.138667l522.24-522.24a141.084444 141.084444 0 0 1 100.408889-41.642667 141.084444 141.084444 0 0 1 100.465778 41.642667 142.222222 142.222222 0 0 1 0 200.874667l-522.24 522.24a28.444444 28.444444 0 0 1-20.081778 8.305777z" p-id="21783"></path><path d="M351.345778 540.444444a28.444444 28.444444 0 0 1-20.138667-8.305777L130.332444 331.264a28.444444 28.444444 0 0 1 0-40.220444l160.711112-160.711112a28.444444 28.444444 0 0 1 40.220444 0l200.874667 200.874667a28.444444 28.444444 0 1 1-40.334223 40.220445L311.182222 190.691556 190.691556 311.182222l180.736 180.622222a28.444444 28.444444 0 0 1-20.138667 48.583112z" p-id="21784"></path><path d="M250.88 440.035556a28.444444 28.444444 0 0 1-20.138667-48.583112l60.302223-60.245333a28.444444 28.444444 0 0 1 40.220444 40.220445l-60.245333 60.302222a28.444444 28.444444 0 0 1-20.138667 8.305778z" p-id="21785"></path><path d="M712.874667 901.973333a28.444444 28.444444 0 0 1-20.138667-8.305777l-200.874667-200.874667a28.444444 28.444444 0 0 1 40.220445-40.220445l180.736 180.736 120.490666-120.490666-180.736-180.736a28.444444 28.444444 0 0 1 40.220445-40.220445l200.874667 200.874667a28.444444 28.444444 0 0 1 0 40.220444l-160.711112 160.711112a28.444444 28.444444 0 0 1-20.081777 8.305777z" p-id="21786"></path><path d="M612.465778 801.564444a28.444444 28.444444 0 0 1-20.138667-48.583111l60.245333-60.245333a28.444444 28.444444 0 1 1 40.220445 40.220444l-60.245333 60.245334a28.444444 28.444444 0 0 1-20.081778 8.362666z" p-id="21787"></path></svg>