<?xml version="1.0" standalone="no"?><!DOCTYPE svg PUBLIC "-//W3C//DTD SVG 1.1//EN" "http://www.w3.org/Graphics/SVG/1.1/DTD/svg11.dtd"><svg t="1718931330003" class="icon" viewBox="0 0 1024 1024" version="1.1" xmlns="http://www.w3.org/2000/svg" p-id="3470" xmlns:xlink="http://www.w3.org/1999/xlink" width="48" height="48"><path d="M511.7 897.1c-20.3 0-39.2-8-53.4-22.5L111.6 516.3C69.5 459 54.8 387.2 70 317.8c20-90.9 94.8-164.4 186.1-182.9C357.3 114.5 457.5 157 511.8 243c54.2-86 154.6-128.6 255.5-108.1 22.6 4.5 44.5 12.5 65.1 23.6 18.1 9.8 24.9 32.4 15.1 50.5-9.9 18.1-32.5 24.9-50.5 15.1-14.2-7.6-29.1-13-44.5-16.1-70.1-14.1-140 15.1-177.7 74.8-13.9 22-37.5 35.3-63 35.3-25.6 0-49.1-13.2-63-35.3C411 223.2 341.2 194 271 208.1c-62.8 12.7-114.3 63.3-128.1 125.8-10.8 49.2-0.9 97.8 27.7 136.9l10.1 12.3 331 339.4L854 469.3c27.6-37.7 37.4-86.3 26.6-135.5-1.2-5.8-2.8-11.4-4.7-17-6.6-19.5 3.9-40.7 23.5-47.2s40.7 4 47.2 23.5c2.8 8 5 16.3 6.9 24.8 15.3 69.4 0.5 141.2-40.4 197.1l-12.3 15.2-335.6 344.4c-14.1 14.5-33.1 22.5-53.5 22.5z" fill="#C6CCDA" p-id="3471"></path><path d="M511.8 897.1c20.3 0 39.2-8 53.4-22.5l346.7-358.2c42.1-57.3 56.8-129.1 41.6-198.5-20-90.9-94.8-164.4-186.1-182.9-101.1-20.5-201.4 22-255.6 108-54.2-86-154.6-128.6-255.5-108.1-22.6 4.5-44.5 12.5-65.1 23.6-18.1 9.8-24.9 32.4-15.1 50.5 9.9 18.1 32.5 24.9 50.5 15.1 14.2-7.6 29.1-13 44.5-16.1 70.1-14.1 140 15.1 177.7 74.8 13.9 22 37.5 35.3 63 35.3 25.6 0 49.1-13.2 63-35.3 37.7-59.7 107.6-88.9 177.8-74.8 62.8 12.7 114.3 63.3 128.1 125.8 10.8 49.2 0.9 97.8-27.7 136.9L842.9 483l-331 339.4-342.3-353.1C142 431.6 132.1 383 143 333.8c1.2-5.8 2.8-11.4 4.7-17 6.6-19.5-3.9-40.7-23.5-47.2s-40.7 4-47.2 23.5c-2.8 8-5 16.3-6.9 24.8-15.3 69.4-0.5 141.2 40.4 197.1l12.3 15.2 335.6 344.5c14 14.4 33 22.4 53.4 22.4z" fill="#C6CCDA" p-id="3472"></path><path d="M486 262.5l-135-90L196.5 195l-72 85.5-15 121.5 46.5 93 163.3 183L504 857.9 634.4 744l142.5-139.5L895.4 468l36-138-63-100.5-100.3-57H649.4L534 270l-30 12z" fill="#C6CCDA" p-id="3473"></path></svg>