<?xml version="1.0" standalone="no"?><!DOCTYPE svg PUBLIC "-//W3C//DTD SVG 1.1//EN" "http://www.w3.org/Graphics/SVG/1.1/DTD/svg11.dtd"><svg t="1718851542549" class="icon" viewBox="0 0 1024 1024" version="1.1" xmlns="http://www.w3.org/2000/svg" p-id="5524" xmlns:xlink="http://www.w3.org/1999/xlink" width="64" height="64"><path d="M512 960C264.576 960 64 759.424 64 512S264.576 64 512 64s448 200.576 448 448-200.576 448-448 448z m96.676-580.64a32 32 0 0 0-59.308-19.268l-99.012 164.816a76.368 76.368 0 0 0-7.164 15.728c-13.036 40.112 8.92 83.196 49.032 96.228a76.205 76.205 0 0 0 16.936 3.448c42.016 3.68 79.06-27.4 82.74-69.416l16.776-191.532zM512 128c-134.452 0-252.768 69.1-321.364 173.728l53.56 35.044C301.36 249.584 399.96 192 512 192c113.584 0 213.348 59.18 270.14 148.388l54.028-34.32C768.02 199.012 648.304 128 512 128z" fill="#868686" p-id="5525"></path></svg>