<?xml version="1.0" standalone="no"?><!DOCTYPE svg PUBLIC "-//W3C//DTD SVG 1.1//EN" "http://www.w3.org/Graphics/SVG/1.1/DTD/svg11.dtd"><svg t="1718814139860" class="icon" viewBox="0 0 1024 1024" version="1.1" xmlns="http://www.w3.org/2000/svg" p-id="15534" xmlns:xlink="http://www.w3.org/1999/xlink" width="64" height="64"><path d="M887.994182 93.090909c19.874909 0 36.165818 17.454545 36.165818 38.865455v503.482181H93.090909V131.956364c0-21.410909 16.244364-38.865455 36.119273-38.865455z m-370.967273 288.581818C465.454545 327.074909 407.365818 353.931636 357.096727 445.021091l40.773818 22.481454 4.561455-8.098909 8.750545-14.568727c31.185455-49.198545 52.736-53.992727 75.450182-27.322182l6.330182 7.214546c71.912727 79.592727 146.944 82.152727 190.138182-12.660364l-42.356364-19.316364-2.978909 6.283637c-27.461818 54.458182-63.208727 49.850182-115.712-11.729455zM93.090909 637.44v77.079273c0 21.410909 16.290909 38.865455 41.053091 38.865454h758.784c14.941091 0 31.185455-17.454545 31.185455-38.865454v-77.079273H93.090909z" fill="#C7C7C7" p-id="15535"></path></svg>