<?xml version="1.0" standalone="no"?><!DOCTYPE svg PUBLIC "-//W3C//DTD SVG 1.1//EN" "http://www.w3.org/Graphics/SVG/1.1/DTD/svg11.dtd"><svg t="1718851398630" class="icon" viewBox="0 0 1024 1024" version="1.1" xmlns="http://www.w3.org/2000/svg" p-id="2368" xmlns:xlink="http://www.w3.org/1999/xlink" width="64" height="64"><path d="M289.8 410.6c-10.4-12.4-29.1-14.1-41.6-3.6l-0.8 0.6c-12.4 10.4-14.1 29.1-3.6 41.6L489 741.4c5.9 7 14.4 10.6 23 10.5 8.5 0.1 17.1-3.5 23-10.5l245.2-292.3c10.4-12.4 8.8-31.1-3.6-41.6l-0.8-0.6c-12.4-10.4-31.1-8.8-41.6 3.6L512 675.4 289.8 410.6z" fill="" p-id="2369"></path><path d="M1017 354.8l-250-298c-6.5-7.7-16.2-11.3-25.5-10.4-1-0.1-1.9-0.1-2.9-0.1h-453c-1 0-2 0.1-2.9 0.1-9.4-0.9-19.1 2.6-25.5 10.4L7 354.8c-5.1 6.1-7.3 13.6-6.8 20.9 0.3 6.3 2.5 12.5 6.8 17.7l481.4 573.8c6.2 7.4 15.4 11 24.5 10.4 8.4 0 16.8-3.6 22.6-10.5L1017 393.4c4.7-5.6 7-12.5 6.9-19.4 0-6.8-2.2-13.6-6.9-19.2zM489 874.5L85.3 393.4c-9.4-11.2-9.4-27.4 0-38.6L284.8 117c5.7-6.8 14.1-10.7 23-10.7h408.4c8.9 0 17.3 3.9 23 10.7l199.5 237.8c9.4 11.2 9.4 27.4 0 38.6L535 874.5c-12 14.3-34 14.3-46 0z" fill="" p-id="2370"></path></svg>